<svg width="24" height="23" viewBox="0 0 24 23" fill="none" xmlns="http://www.w3.org/2000/svg">
<path d="M13.5612 16.0421L7.84366 10.3244C7.58028 10.0611 7.15411 10.0611 6.89073 10.3244L3.94201 13.2731C3.15377 14.0614 3.15377 15.3437 3.94201 16.132L7.75377 19.9437C8.54201 20.7319 9.82435 20.7319 10.6126 19.9437L13.5612 16.995C13.8246 16.7316 13.8246 16.3055 13.5612 16.0421ZM9.74951 16.995C9.48622 17.2584 9.05996 17.2584 8.79658 16.995L6.89073 15.0891C6.62735 14.8258 6.62735 14.3995 6.89073 14.1361C7.15411 13.8728 7.58028 13.8728 7.84366 14.1361L9.74951 16.042C10.0129 16.3055 10.0129 16.7316 9.74951 16.995Z" fill="white" fill-opacity="0.6"/>
<path d="M21.7823 7.82086L16.0648 2.10329C15.8014 1.83992 15.3751 1.83992 15.1118 2.10329L13.6824 3.53262L20.3529 10.2032L21.7823 8.77379C22.0457 8.51041 22.0457 8.08424 21.7823 7.82086Z" fill="white" fill-opacity="0.6"/>
<path d="M12.9113 4.66748L11.5427 7.57815L9.74941 9.37138C9.48612 9.63476 9.48612 10.061 9.74941 10.3243L13.5612 14.1361C13.8245 14.3994 14.2508 14.3994 14.5142 14.1361L16.3074 12.3428L19.218 10.9742L12.9113 4.66748ZM14.9906 10.8008C14.7272 11.0642 14.3011 11.0642 14.0377 10.8008L13.0848 9.84787C12.8214 9.58449 12.8214 9.15823 13.0848 8.89485C13.3481 8.63156 13.7743 8.63156 14.0377 8.89485L14.9906 9.84787C15.254 10.1112 15.254 10.5374 14.9906 10.8008Z" fill="white" fill-opacity="0.6"/>
<path d="M19.8764 0.197533C19.613 -0.0658442 19.1868 -0.0658442 18.9234 0.197533L17.4941 1.62695L19.3999 3.5328L21.3058 1.62695L19.8764 0.197533Z" fill="white" fill-opacity="0.6"/>
<path d="M23.6882 4.009L22.2588 2.57959L20.3529 4.48549L22.2588 6.39134L23.6882 4.96193C23.9515 4.69855 23.9515 4.27238 23.6882 4.009Z" fill="white" fill-opacity="0.6"/>
<path d="M2.51262 16.6084L1.08321 18.0378C0.81992 18.3012 0.81992 18.7275 1.08321 18.9907L2.51262 20.4202L4.41852 18.5143L2.51262 16.6084Z" fill="white" fill-opacity="0.6"/>
<path d="M5.37142 19.4673L3.46552 21.3732L4.89493 22.8025C5.15831 23.0659 5.58457 23.0659 5.84795 22.8025L7.27727 21.3732L5.37142 19.4673Z" fill="white" fill-opacity="0.6"/>
</svg>
