<svg width="27" height="23" viewBox="0 0 27 23" fill="none" xmlns="http://www.w3.org/2000/svg">
<path d="M26.1056 1.80198C25.5383 0.690685 24.3967 0 23.1268 0H12.7803C10.7991 0 8.90815 0.831037 7.59189 2.28082L2.57819 7.80213C1.44708 9.04717 0.824388 10.6506 0.828542 12.3842L1.72189 19.1306C1.84963 20.0974 2.30804 21.0102 3.01258 21.6993C3.86938 22.5381 5.00835 23 6.22031 23H24.321C25.4992 23 26.4571 22.0622 26.4571 20.9091V3.2599C26.4571 2.75656 26.3356 2.25225 26.1056 1.80198ZM4.97587 9.88536L9.98876 4.36458C10.6979 3.58407 11.7162 3.13636 12.7825 3.13636H23.1274C23.177 3.13636 23.2182 3.16086 23.2536 3.2599V11.5H4.07486C4.17292 10.9466 4.44663 10.4694 4.97587 9.88536ZM23.7875 18.8181H4.56606C4.27093 18.8181 4.03212 18.5843 4.03212 18.2954C4.03212 18.0065 4.27093 17.7727 4.56606 17.7727H23.7875C24.0826 17.7727 24.3214 18.0065 24.3214 18.2954C24.3214 18.5844 24.0826 18.8181 23.7875 18.8181ZM23.7875 15.6818H20.5839C20.2888 15.6818 20.05 15.448 20.05 15.159C20.05 14.8701 20.2888 14.6363 20.5839 14.6363H23.7875C24.0826 14.6363 24.3214 14.8701 24.3214 15.159C24.3214 15.448 24.0826 15.6818 23.7875 15.6818Z" fill="white" fill-opacity="0.6"/>
</svg>
