<svg width="31" height="23" viewBox="0 0 31 23" fill="none" xmlns="http://www.w3.org/2000/svg">
<path d="M30.5891 10.945L27.1104 8.30394C26.7959 8.06513 26.3746 8.02461 26.0206 8.20107C25.6677 8.37595 25.4441 8.73652 25.4441 9.1312V10.7472H24.4151V9.11399C24.4151 8.54033 23.9501 8.07521 23.3767 8.07521H21.3092V4.21831C21.3092 3.64455 20.8441 3.17953 20.2707 3.17953H17.0405V2.07714H17.9101C18.4836 2.07714 18.9487 1.61202 18.9487 1.03846C18.9487 0.46491 18.4836 0 17.9101 0H11.2006C10.6272 0 10.1621 0.46491 10.1621 1.03846C10.1621 1.61202 10.6272 2.07714 11.2006 2.07714H12.0708V3.17953H8.0558C7.48226 3.17953 7.01715 3.64455 7.01715 4.21831V6.24559H4.98887C4.41523 6.24559 3.95022 6.7106 3.95022 7.28416V9.66004H2.07698V6.71323C2.07698 6.13967 1.61198 5.67466 1.03844 5.67466C0.464899 5.67455 0 6.13967 0 6.71312V17.5764C0 18.15 0.464899 18.6149 1.03854 18.6149C1.61208 18.6149 2.07709 18.1499 2.07709 17.5764V14.6295H3.95043V17.0651C3.95043 17.6388 4.41544 18.1037 4.98908 18.1037H7.60076L11.2648 22.6162C11.4621 22.859 11.7583 23 12.071 23H23.3769C23.9504 23 24.4153 22.5348 24.4153 21.9613V20.5891H25.4443V21.9613C25.4443 22.367 25.6804 22.7352 26.0487 22.905C26.1876 22.9687 26.3358 22.9999 26.4827 22.9999C26.7262 22.9999 26.9665 22.9142 27.1588 22.7498L30.6375 19.7682C30.8677 19.5706 31 19.2827 31 18.9795V11.7719C30.9998 11.4476 30.8477 11.1413 30.5891 10.945Z" fill="white" fill-opacity="0.6"/>
</svg>
